<?xml version="1.0" standalone="no"?>
<!DOCTYPE svg PUBLIC "-//W3C//DTD SVG 20010904//EN"
 "http://www.w3.org/TR/2001/REC-SVG-20010904/DTD/svg10.dtd">
<svg version="1.0" xmlns="http://www.w3.org/2000/svg"
 width="500.000000pt" height="499.000000pt" viewBox="0 0 500.000000 499.000000"
 preserveAspectRatio="xMidYMid meet">

<g transform="translate(0.000000,499.000000) scale(0.100000,-0.100000)"
fill="#000000" stroke="none">
<path d="M1417 4769 c-277 -19 -489 -64 -655 -140 -352 -162 -503 -471 -542
-1109 -13 -211 -13 -1812 0 -2030 53 -920 328 -1210 1205 -1270 195 -13 1953
-13 2150 0 870 59 1149 349 1205 1255 13 200 12 1825 0 2040 -53 904 -334
1195 -1215 1254 -176 12 -1971 12 -2148 0z m105 -1472 c18 -18 39 -51 47 -72
118 -341 296 -674 444 -831 54 -58 94 -79 131 -70 43 11 48 58 44 385 -4 335
-7 348 -90 457 -48 64 -53 102 -18 139 l24 25 309 -2 310 -3 21 -28 c20 -28
21 -41 26 -423 4 -336 7 -396 20 -404 26 -17 55 -11 104 21 105 70 264 299
411 593 81 161 107 205 134 223 33 22 41 23 256 23 213 0 223 -1 250 -22 26
-20 27 -25 22 -76 -10 -97 -126 -310 -346 -637 -126 -188 -140 -215 -133 -252
3 -15 58 -82 135 -162 236 -246 367 -417 402 -520 14 -44 14 -53 1 -84 -24
-59 -37 -62 -281 -62 -264 0 -250 -5 -385 139 -283 302 -409 401 -512 401 -26
0 -53 -6 -60 -13 -10 -9 -14 -71 -18 -232 -5 -214 -5 -219 -29 -244 -34 -36
-88 -48 -211 -48 -177 0 -321 36 -490 124 -280 145 -521 410 -772 848 -157
273 -287 605 -291 739 -1 47 2 56 26 77 28 24 30 24 257 24 l229 0 33 -33z"/>
</g>
</svg>
