<?xml version="1.0" standalone="no"?>
<!DOCTYPE svg PUBLIC "-//W3C//DTD SVG 20010904//EN"
 "http://www.w3.org/TR/2001/REC-SVG-20010904/DTD/svg10.dtd">
<svg version="1.0" xmlns="http://www.w3.org/2000/svg"
 width="16.000000pt" height="16.000000pt" viewBox="0 0 900.000000 900.000000"
 preserveAspectRatio="xMidYMid meet">

<g transform="translate(0.000000,900.000000) scale(0.100000,-0.100000)"
fill="#000000" stroke="none">
<path d="M0 4500 l0 -4500 4500 0 4500 0 0 4500 0 4500 -4500 0 -4500 0 0
-4500z m1295 959 c330 -219 742 -492 915 -607 l315 -208 3 563 2 563 280 0
280 0 0 -1035 c0 -645 -4 -1035 -9 -1035 -10 0 -243 153 -1284 843 -312 208
-569 377 -570 377 -1 0 -2 -297 -2 -660 l0 -660 3523 0 3522 0 0 -230 0 -230
-3800 0 -3800 0 0 1366 c0 1089 3 1364 13 1358 6 -4 282 -186 612 -405z m4415
116 l0 -195 -930 0 -930 0 0 -600 0 -600 930 0 930 0 0 -195 0 -195 -1107 0
-1108 0 -50 24 c-69 32 -131 103 -144 167 -15 67 -15 1536 0 1599 17 74 86
147 166 176 31 11 246 13 1141 14 l1102 0 0 -195z m2480 0 l0 -195 -860 0
-860 0 0 -200 0 -199 828 -3 827 -3 48 -22 c60 -28 133 -104 147 -151 15 -54
13 -799 -2 -843 -19 -57 -65 -106 -130 -138 l-61 -31 -1104 0 -1103 0 0 195 0
195 930 0 930 0 0 200 0 199 -827 3 -828 3 -50 23 c-59 27 -122 85 -141 129
-11 26 -14 116 -14 443 0 465 -2 453 81 524 80 68 16 64 1157 65 l1032 1 0
-195z"/>
<path d="M2290 3365 l0 -115 30 0 c29 0 29 0 32 65 l3 65 105 -70 105 -70 3
107 c1 59 0 113 -2 120 -3 7 -17 13 -31 13 -24 0 -25 -2 -25 -65 0 -36 -3 -65
-6 -65 -4 0 -51 29 -105 65 -55 36 -102 65 -104 65 -3 0 -5 -52 -5 -115z"/>
<path d="M2608 3469 c-15 -8 -18 -25 -18 -99 0 -48 3 -95 6 -104 5 -13 26 -16
128 -16 82 0 126 4 134 12 8 8 12 46 12 105 0 81 -2 94 -19 103 -25 13 -220
13 -243 -1z m200 -106 l-3 -68 -75 0 -75 0 -3 68 -3 67 81 0 81 0 -3 -67z"/>
<path d="M2908 3469 c-15 -8 -18 -25 -18 -102 0 -59 4 -97 12 -105 8 -8 54
-12 140 -12 121 0 128 1 128 20 0 18 -8 20 -107 22 l-108 3 -3 68 -3 67 111 0
c110 0 111 0 108 23 -3 21 -7 22 -123 24 -69 2 -127 -2 -137 -8z"/>
<path d="M3208 3469 c-15 -8 -18 -25 -18 -102 0 -59 4 -97 12 -105 8 -8 52
-12 134 -12 102 0 123 3 128 16 3 9 6 56 6 104 0 78 -2 91 -19 100 -25 13
-220 13 -243 -1z m200 -106 l-3 -68 -75 0 -75 0 -3 68 -3 67 81 0 81 0 -3 -67z"/>
<path d="M3499 3476 c-2 -2 -3 -54 -1 -115 l3 -111 30 0 c26 0 29 3 29 35 l0
34 103 3 102 3 3 65 c4 87 -1 90 -148 90 -64 0 -119 -2 -121 -4z m211 -81 l0
-35 -75 0 -75 0 0 35 0 35 75 0 75 0 0 -35z"/>
<path d="M3800 3472 c0 -4 23 -30 50 -57 49 -48 50 -51 50 -107 0 -58 0 -58
30 -58 29 0 30 1 30 52 0 47 4 56 50 109 28 32 50 60 50 63 0 3 -12 6 -27 6
-18 0 -40 -13 -65 -37 l-38 -37 -38 37 c-25 24 -47 37 -65 37 -15 0 -27 -4
-27 -8z"/>
<path d="M4099 3478 c-1 -2 -3 -54 -4 -115 l-4 -113 29 0 c25 0 29 4 32 33 3
31 4 32 54 35 48 3 52 1 78 -33 22 -28 34 -35 62 -35 l35 0 -22 31 c-20 29
-21 32 -6 41 13 7 17 24 17 73 0 53 -3 66 -19 75 -16 8 -248 15 -252 8z m211
-83 l0 -36 -77 3 c-66 3 -78 6 -81 21 -8 40 4 47 83 47 l75 0 0 -35z"/>
<path d="M4410 3365 l0 -115 30 0 30 0 0 115 0 115 -30 0 -30 0 0 -115z"/>
<path d="M4506 3464 c-12 -11 -16 -36 -16 -98 0 -118 -1 -117 150 -114 l125 3
3 63 3 62 -66 0 c-58 0 -65 -2 -65 -20 0 -16 7 -20 35 -20 31 0 35 -3 35 -25
0 -26 0 -26 -77 -23 l-78 3 -3 68 -3 67 101 0 100 0 0 25 0 25 -114 0 c-91 0
-118 -3 -130 -16z"/>
<path d="M4800 3366 l0 -116 30 0 c29 0 30 2 30 45 l0 45 75 0 75 0 0 -45 c0
-43 1 -45 30 -45 l30 0 0 115 0 115 -29 0 c-28 0 -30 -2 -33 -47 l-3 -48 -72
-3 -72 -3 -3 48 c-3 44 -5 48 -30 51 l-28 3 0 -115z"/>
<path d="M5100 3455 c0 -23 3 -25 50 -25 l50 0 0 -90 0 -90 30 0 30 0 0 90 0
90 55 0 c52 0 55 1 55 25 l0 25 -135 0 -135 0 0 -25z"/>
<path d="M5412 3472 c-9 -6 -12 -27 -10 -68 l3 -59 103 -3 c101 -3 102 -3 102
-27 0 -25 0 -25 -105 -25 -99 0 -105 -1 -105 -20 0 -20 5 -20 133 -18 l132 3
0 60 0 60 -102 3 c-102 3 -103 3 -103 27 0 24 2 24 98 27 89 3 97 5 97 23 0
19 -8 20 -115 23 -63 1 -121 -2 -128 -6z"/>
<path d="M5712 3472 c-9 -6 -12 -36 -10 -113 l3 -104 130 0 130 0 3 100 c2 85
0 102 -15 112 -19 15 -219 18 -241 5z m198 -112 l0 -70 -75 0 -75 0 0 70 0 70
75 0 75 0 0 -70z"/>
<path d="M6002 3368 l3 -113 130 0 130 0 3 113 3 112 -31 0 -30 0 0 -95 0 -95
-75 0 -75 0 0 95 0 95 -30 0 -31 0 3 -112z"/>
<path d="M6300 3365 l0 -115 30 0 30 0 0 65 0 65 105 -70 105 -70 0 120 0 120
-30 0 -30 0 0 -65 c0 -36 -2 -65 -4 -65 -2 0 -40 24 -83 54 -136 91 -123 95
-123 -39z"/>
<path d="M6600 3365 l0 -116 133 3 132 3 3 104 c2 77 -1 107 -10 113 -7 4 -68
8 -135 8 l-123 0 0 -115z m210 -5 l0 -70 -75 0 -75 0 0 70 0 70 75 0 75 0 0
-70z"/>
<path d="M6917 3468 c-15 -11 -18 -25 -15 -68 l3 -55 103 -3 c101 -3 102 -3
102 -27 0 -25 0 -25 -105 -25 -99 0 -105 -1 -105 -20 0 -20 5 -20 133 -18
l132 3 3 63 3 62 -106 0 -105 0 0 25 0 25 101 0 c98 0 100 0 97 23 -3 21 -8
22 -113 25 -79 2 -115 -1 -128 -10z"/>
</g>
</svg>
