<?xml version="1.0" standalone="no"?>
<!DOCTYPE svg PUBLIC "-//W3C//DTD SVG 20010904//EN"
 "http://www.w3.org/TR/2001/REC-SVG-20010904/DTD/svg10.dtd">
<svg version="1.0" xmlns="http://www.w3.org/2000/svg"
 width="320.000000pt" height="320.000000pt" viewBox="0 0 320.000000 320.000000"
 preserveAspectRatio="xMidYMid meet">

<g transform="translate(0.000000,320.000000) scale(0.100000,-0.100000)"
fill="#000000" stroke="none">
<path d="M1525 3193 c-105 -5 -217 -23 -332 -54 -281 -73 -508 -204 -714 -409
-231 -230 -374 -494 -444 -820 -26 -122 -31 -395 -10 -531 48 -315 163 -569
367 -815 406 -487 1092 -680 1704 -479 440 144 821 507 988 940 74 194 106
367 106 583 0 606 -334 1145 -875 1412 -155 76 -252 111 -395 141 -80 16 -313
43 -330 37 -3 -1 -32 -3 -65 -5z m292 -813 c89 -11 223 -36 297 -54 285 -73
567 -201 615 -279 55 -90 26 -208 -62 -254 -57 -29 -125 -21 -209 25 -167 93
-422 172 -673 209 -92 13 -183 18 -390 18 -287 0 -332 -5 -564 -56 -144 -32
-173 -30 -229 10 -91 64 -81 234 17 289 74 42 366 100 581 116 124 9 461 -4
617 -24z m-247 -570 c281 -26 566 -106 804 -228 147 -75 172 -108 164 -209 -4
-49 -10 -61 -40 -89 -22 -20 -51 -34 -76 -39 -38 -6 -55 0 -184 63 -148 73
-304 128 -443 157 -305 63 -630 59 -899 -11 -111 -28 -149 -27 -196 6 -59 42
-77 125 -44 196 21 44 44 60 123 84 219 68 516 94 791 70z m186 -584 c203 -43
465 -147 552 -221 63 -53 63 -147 1 -200 -49 -40 -94 -34 -218 29 -121 62
-283 117 -421 142 -71 14 -144 18 -290 18 -199 0 -193 0 -535 -61 -40 -7 -99
18 -120 51 -26 39 -30 106 -10 145 22 44 74 65 215 91 194 34 257 39 485 35
188 -3 238 -7 341 -29z"/>
</g>
</svg>
