<?xml version="1.0" standalone="no"?>
<!DOCTYPE svg PUBLIC "-//W3C//DTD SVG 20010904//EN"
 "http://www.w3.org/TR/2001/REC-SVG-20010904/DTD/svg10.dtd">
<svg version="1.0" xmlns="http://www.w3.org/2000/svg"
 width="980.000000pt" height="982.000000pt" viewBox="0 0 980.000000 982.000000"
 preserveAspectRatio="xMidYMid meet">

<g transform="translate(0.000000,982.000000) scale(0.100000,-0.100000)"
fill="#000000" stroke="none">
<path d="M4585 9809 c-496 -32 -1028 -151 -1490 -334 -151 -59 -486 -222 -630
-305 -1217 -699 -2086 -1902 -2365 -3271 -72 -355 -95 -596 -94 -994 0 -510
51 -882 186 -1355 441 -1546 1632 -2787 3166 -3300 875 -292 1847 -327 2747
-99 1391 353 2555 1300 3190 2594 272 553 425 1098 487 1730 16 169 16 701 0
870 -62 632 -215 1176 -487 1730 -558 1138 -1524 2009 -2711 2446 -628 231
-1322 331 -1999 288z m-1159 -1975 c4 -15 60 -218 124 -453 77 -280 122 -427
131 -429 10 -2 38 89 103 340 49 189 103 394 119 456 l30 112 193 0 c107 0
194 -4 194 -8 0 -5 -99 -302 -220 -661 l-220 -653 0 -479 0 -479 -195 0 -195
0 0 453 0 452 -229 688 -229 687 194 0 194 0 6 -26z m1583 -545 c160 -35 296
-169 330 -327 18 -85 15 -998 -4 -1086 -45 -213 -222 -335 -485 -336 -238 0
-401 104 -472 301 -22 63 -23 71 -26 553 -2 299 1 514 7 554 25 158 133 276
304 331 88 29 237 33 346 10z m961 -689 c0 -740 -2 -723 65 -736 50 -9 113 17
175 73 l50 45 0 639 0 639 175 0 175 0 0 -840 0 -840 -175 0 -175 0 0 91 0 92
-49 -46 c-65 -61 -142 -109 -218 -137 -49 -18 -77 -21 -141 -19 -103 5 -148
33 -189 116 l-28 58 -3 763 -2 762 170 0 170 0 0 -660z m1016 -1565 c237 -38
455 -154 622 -329 127 -134 219 -298 270 -483 l27 -98 0 -625 c0 -612 -1 -627
-22 -702 -30 -107 -77 -221 -120 -293 -171 -283 -446 -475 -761 -530 -127 -22
-4077 -22 -4203 0 -405 71 -738 365 -862 760 -45 145 -48 200 -45 815 l4 575
26 98 c31 112 97 256 158 346 163 241 439 417 729 466 60 10 497 13 2081 14
1726 1 2018 -1 2096 -14z"/>
<path d="M4774 7001 c-12 -5 -31 -22 -43 -37 -22 -27 -22 -27 -19 -545 l3
-519 31 -31 c56 -56 160 -50 220 12 l29 30 3 510 3 509 -35 37 c-32 35 -37 37
-102 40 -38 2 -79 -1 -90 -6z"/>
<path d="M2740 4510 l0 -150 175 0 175 0 0 -885 0 -885 175 0 175 0 0 885 0
885 175 0 175 0 0 150 0 150 -525 0 -525 0 0 -150z"/>
<path d="M5030 3625 l0 -1035 150 0 150 0 0 55 0 54 64 -48 c84 -64 122 -76
231 -76 72 1 98 5 130 22 53 28 89 67 117 128 23 50 23 51 26 575 2 368 0 543
-8 585 -32 164 -135 251 -292 248 -69 -1 -149 -36 -219 -94 l-49 -41 0 331 0
331 -150 0 -150 0 0 -1035z m513 241 c14 -13 30 -41 36 -62 14 -52 15 -865 1
-916 -24 -83 -117 -102 -203 -41 l-42 29 -3 473 c-2 369 1 477 10 489 47 56
155 71 201 28z"/>
<path d="M6447 4150 c-197 -26 -344 -166 -377 -361 -18 -104 -8 -869 12 -935
46 -154 155 -260 300 -294 65 -15 206 -12 273 5 87 23 140 53 191 107 75 80
113 199 114 351 l0 77 -153 0 -154 0 -6 -95 c-7 -104 -24 -157 -57 -175 -38
-20 -126 -17 -157 6 -44 33 -51 72 -52 282 l-1 192 290 0 290 0 0 238 c0 308
-17 383 -107 483 -84 93 -244 140 -406 119z m127 -274 c52 -22 68 -68 70 -205
l1 -116 -133 -3 -134 -3 4 130 c3 113 6 133 24 158 39 52 101 67 168 39z"/>
<path d="M3930 3438 c0 -427 4 -697 10 -719 16 -57 51 -102 100 -127 100 -52
264 -6 393 108 l57 52 0 -81 0 -81 155 0 155 0 0 765 0 765 -155 0 -155 0 0
-584 0 -584 -42 -37 c-58 -51 -121 -78 -159 -70 -60 13 -59 3 -59 670 l0 605
-150 0 -150 0 0 -682z"/>
</g>
</svg>
